<svg xmlns="http://www.w3.org/2000/svg" version="1.1" xmlns:xlink="http://www.w3.org/1999/xlink" width="99.03" height="99.06"><svg id="SvgjsSvg1006" data-name="Layer 1" xmlns="http://www.w3.org/2000/svg" viewBox="0 0 99.03 99.06">
  <path d="M38.02,9.62h0c1.3.1,2.51.32,3.8.54h0c.84.21,3.81,1.27,4.61,1.6l7.32-7.16s1.53-1.14,2.35-1.64h0c.6-.27,1.13-.65,1.72-.95.83-.45,1.72-.74,2.57-1.13,0,0,0,0,0,0,.63-.11,1.28-.35,1.9-.12.44.18.81.54,1.11.9,0,0,0,0,0,0,.59,1.17.99,2.35,1.25,3.63.72,3.06.74,6.36.45,9.49-.38,4.07-1.58,7.99-3.36,11.66-.3.57-.12,1.28-.11,1.91h0c.5,4.19-.08,8.39-1.45,12.37-.17.57.69-1.93-.78,2.08-.16.53-.16,1.26.31,2.23.65,1.34,2.44,2.85,2.44,2.85,0,0,2.6,2.22,3.44,2.9.83.62,1.63,1.28,2.43,1.94,1.27,1.21,4.81,5.12,5.23,5.62.67.83,1.32,1.68,1.89,2.58.01.02.46.72.65,1.02,0,0,.27.42.27.43.26.38,1.24,2.25,1.25,2.26.43.81.76,1.68,1.15,2.52.15.3.94,2.43.99,2.62.75,2.46,1.21,4.99,1.28,7.55,0,2.64-.23,5.24-.89,7.81-.04.17-.05.35-.06.52,0,.01,0,.02.02.03,2.58,1.46,6,.77,8.03-1.32.14-.13,1.12-1.46,1.35-3.18.05-.39.21-1.37-.38-3.16-.48-1.46-1.18-2.88-1.93-4.22-1.13-2.05-2.5-4.26-2.89-6.58-.23-.93-.17-1.85-.2-2.8h0c.08-.92.23-1.84.53-2.71.27-.83.63-1.73,1.22-2.4.39-.51.83-.98,1.33-1.39,1.02-.9,2.28-1.72,3.62-2.05.57-.12,1.13-.24,1.7-.29h0c.56,0,1.11-.05,1.67-.03h0c.92.12,1.93.33,2.68.89.26.2.51.32.62.63l.15-.05-.03.2s0,.02,0,.02c.73.72.64,2.03.17,2.88,0,0,0,0,0,0-.59.84-1.4,1.49-1.99,2.32,0,0,0,0,0,0-.71,1.13-.98,2.55-.8,3.86.09,1.25.62,2.28,1.13,3.39.17.32.35.62.54.92h0c.12.24.26.47.38.71.08.15.17.3.24.45.18.38.36.77.53,1.15,1.61,3.56,1.99,7.64.93,11.42-.53,1.85-1.42,3.6-2.61,5.12-1.05,1.34-2.37,2.5-3.8,3.41-.51.3-1.04.63-1.58.87-1.85.8-3.77,1.45-5.77,1.69-2.77.26-5.52.29-8.26-.18-.24-.03-.46,0-.69,0,0,0-.02,0-.02.01-.09.12-.18.25-.28.37-.57.63-1.08,1.34-1.78,1.79-.98.68-2.11.99-3.27,1.22h0c-1.61.23-3.33.12-4.96.15h-7.99c-7.55.06-15.13-.2-22.75.08-5.83.05-11.65,0-17.48.15-1.07.03-2.08-.03-3.01-.63-.51-.3-.84-.77-1.13-1.28-.3-.57-.29-1.34-.35-1.97h0c0-.77.24-1.48.53-2.19.29-.68.65-1.31,1.25-1.78.8-.74,4.37-2.44,4.73-2.53,0,0,.32-.17.33-.18.11-.24.13-.49.17-.75.42-2.56.2-5.3-.18-7.87-.32-1.84-.74-3.65-1.31-5.42-.87-2.76-2.05-5.27-2.61-8.17-.44-2.26-.6-4.6-.42-6.9.08-2.37.5-4.73.87-7.05.02-.38.33-1.15-.15-1.31-.6-.35-1.24-.66-1.82-1.05-1.63-1.1-2.94-2.56-3.96-4.23-.11-.27-.59-.18-.78-.11-.86.36-1.72.6-2.53,1.07-.42.24-.84.5-1.28.71.32-.42.78-.54,1.24-.77,1-.48,2.05-1.02,3.14-1.2.02,0,.03-.03.02-.04-.22-.33-.44-.26-.79-.25l.14-.05c.14-.04.27-.08.4-.13.02,0,.03-.03.02-.04-.55-.93-.97-1.91-1.35-2.91h0c-.11-.21-.18-.53-.48-.5-1.15-.06-2.25-.2-3.39-.05,1.09-.31,2.37-.05,3.5-.07.02,0,.03-.02.03-.04l-.13-.35s-.01-.02-.02-.02c-.69-.1-1.42-.06-2.12-.04.2-.02.41-.05.6-.06h0c.53,0,1.04.03,1.57.04.02,0,.03-.02.03-.04-.14-.36-.26-.73-.36-1.1-.2-.66-.48-1.28-.63-1.94-.23-.95-.44-1.91-.54-2.88-.27-2.98.23-5.88,1.16-8.71.15-.5.35-.96.54-1.45.15-.38.38-.75.45-1.14h0c-.09-.64-.42-1.24-.63-1.84-.75-2.08-1.49-4.13-1.97-6.3-.5-2.52-.86-5.03-.77-7.59h0c.11-1,.08-1.98.24-2.94.12-.8.26-1.6.5-2.38C6.19,1.61,6.53.61,7.43,0c0,0,.01,0,.02,0,.42.02.82.08,1.22.14h0c1.36.35,2.56.98,3.81,1.58.17.09.33.18.5.27l.12.06c.24.14.48.26.74.39h0c.5.32.99.63,1.49.93h0c.44.33.9.63,1.37.92,0,0,0,0,0,0l3.25,2.5c.92.78,1.78,1.69,2.64,2.55.61.61,1.13,1.32,1.67,2,0,0,.01,0,.02.01.39.1.99-.26,1.38-.36,1.19-.35,2.4-.69,3.62-.92,1.01-.15,2.03-.36,3.06-.41h0c1.02-.15,2.16-.15,3.42-.15" fill="#001022"></path>
  <path d="M8.94,1.82s2.05.64,3.93,2.09c.12.08,6.42,5.55,7.34,6.74.81.96,1.52,2,2.05,3.16.72-.32,1.46-.59,2.17-.93.78-.33,1.67-.68,2.53-.68-.17.54-.72,1.04-.68,1.6-.06.11-.11.23-.17.33l-.2-.06c-.6,1.12-.93,2.26-1.34,3.45-.51,1.93-.68,3.84-.8,5.83-.02.86,0,1.7-.05,2.56,0,.48,0,1.51-.03,1.62-.03.18.01.37.26.46.3.17.57-.12.59-.41.06-.71,0-1.42.08-2.12.12-1.04,0-2.08.12-3.12.14-1.16.2-2.28.45-3.42.29-1.28.66-2.56,1.22-3.75.48-.92.96-1.84,1.49-2.74.11-.17.12-.29.12-.47v-.17c1.79-.36,3.57-.66,5.39-.77,1.66,0,3.32-.05,4.97.15.03,0,.38.03,1.2.32-1.37,1.01-4.43,3.4-4.65,3.6-1.66,1.33-3.44,2.47-5.09,3.8-.33.26-.72.5-.98.83-.14.26-.15.57-.21.86-.23,2.03-.44,4.08-.63,6.12-.03.33-.05.74,0,1.07l.29.03c.42-.17.51-.43.59-.8.18-2.26.48-4.84.67-6.88.56-.44,2.19-1.58,2.54-1.82.54-.44,1.19-.78,1.7-1.27,0,0,1.43-1.1,1.82-1.37.35-.27,3.36-2.66,4.44-3.5.27-.21.38-.31.67-.47.66.08,3.32.88,3.87,1.57.06.08-2.34,2.05-2.71,2.5-1.01.75-2,1.51-3.01,2.26-.23.2-1.24.84-1.48.96-.42-.12-.96-.48-1.4-.36-.18.11-.13.04-.6.45-.21.21-.47.44-.44.74-.06.36-.03.59.06.94-.98.69-1.86,1.53-2.81,2.25-.27.23-.44.44-.45.84.51-.09.68-.16,1.07-.45.57-.48,1.91-1.52,2.5-1.98.27.03,1.31.37,1.84-.09.38-.29.43-.75.59-1.16.06-.14.21-.24.28-.38.98-.89,1.94-1.48,2.98-2.29,0,0,1.51-1.14,2.64-2.28.68-.68,1.33-1.43,1.52-1.62.27.16.65.82,1.31.57.17-.07.39-.37.56-.57.6-.71,1.19-1.42,1.81-2.11,1.02-1.08,2.08-2.14,3.16-3.18,1.37-1.19,2.79-2.47,4.32-3.45.27-.05.51-.08.72-.24.9-.59,1.85-1.08,2.83-1.54.5-.23.98-.3,1.37-.71.2-.05.29-.12.45.05.23.24.38.54.5.84-.14.48.23.96.35,1.46.33,1.27.62,2.59.63,3.9.11,1.27.18,2.5.02,3.77-.17,3.56-1.04,7.14-2.65,10.32-.17.36-.38.65-.3,1.07-.27.54-.59,1.02-.98,1.49-.11-.12-.2-.26-.29-.39,0-.24.11-.48.2-.69.69-1.49,1.31-3.03,1.84-4.58l.17.17c.36-.99.51-2.02.75-3.06.11-.54.3-1.01.11-1.55.09-1.24.26-2.47.32-3.71.02.27.08.54.17.81.15-1.4.15-2.88-.02-4.28-.06-.63-.03-1.27-.24-1.88-.24-.77-.44-1.55-.75-2.29l-.15.09c-.24-.47-.44-.17-.8-.05-.26-.05-.41-.05-.65.09-1.7.99-3.27,2.25-4.61,3.69-.41.45-.9.69-1.01,1.33-.32.5-.72.92-1.08,1.39-1.31,1.72-2.47,3.5-3.21,5.55-.11.33-.45.74-.32,1.08.42.02.69-.32,1.02-.54.77-.56,1.57-1.08,2.41-1.52.6-.3,1.07-.68,1.76-.77-.2.24-.72.47-.5.81-.69.74-1.34,1.46-1.9,2.32-.3.47-.65.89-.98,1.34l.03.05c.24.41.8.59,1.15.89.38.24.78.75,1.27.72,1.24,1.01,2.23,2.32,3.09,3.66.29.45.53.92.69,1.42-.03.29.02.5.12.77.51,1.4.86,2.82.92,4.31.14.98-.09,1.99.18,2.92-.3,3.9-1.96,7.62-4.58,10.52-.81.93-1.67,1.81-2.68,2.55l-.41.08c-.06-.32-.09-.62-.12-.93.12.02.26.05.38.08-.02-.12-.03-.26-.05-.38.18-.03.36-.06.56-.11v-.41c-.3.18-.6.33-.93.44.11-.18.26-.26.44-.36-.08-.12-.17-.26-.24-.38.24-.14.45-.27.65-.47-.09-.03-.2-.06-.29-.08-.09-.09-.17-.2-.26-.29-.23.06-.47.14-.69.2-.23-.08-.47-.14-.69-.2-.05-.12-.11-.24-.15-.35-.21.02-.35-.02-.47.18,0,.24.03.5.03.74-2.7-1.3-5.55-1.72-8.51-1.88-1.31-.14-2.59-.14-3.92,0-1.4.06-2.86.24-4.22.65-.38.15-.33.41-.33.75.35.02.69.05,1.04.03-.06.21-.18.36-.32.53.06.06.14.12.2.17-.38.06-.71.12-1.02.35,0,.18.03.36.03.54-.32.17-.51.27-.66.6.81.27,1.63.56,2.49.74.47.17,1.05.17,1.33.65-1.05.6-2.4.83-3.59,1.01-1.22.18-2.35-.02-3.54-.27-.95-.21-1.81-.62-2.62-1.13-.78-.5-1.66-1.45-1.45-2.46.08-.48.56-.78.93-1.01.81-.47,1.64-1.15,2.09-1.97.23-.51.15-.93-.27-1.28-.83-.65-2.12-.81-3.15-.92-.81-.12-1.69.05-2.49.21-.63.15-1.24.45-1.46,1.1-.18.72.11,1.49.66,1.97.54.54,1.3.8,1.82,1.36.23.63.08,1.61-.32,2.15-1.21,1.55-3.35,2.29-5.24,1.76-1.52-.56-3.12-1.51-4.07-2.85.92-.08,1.9-.09,2.8-.3.21-.33-.14-.77-.5-.75-.66-.03-1.34.09-2,.09.45-.11.9-.24,1.37-.33-.26-.23-.5-.47-.72-.71.29-.03.56-.06.84-.09.24.03.47.08.71.11-.03-.36-.44-.42-.69-.6-.66-.57-1.79-.56-2.5-1.07-.36-.54-.72-1.07-1.12-1.58-.66-1.04-1.27-2.14-1.67-3.32-.57-1.48-.75-3.01-.81-4.58.09-1.54.18-3.01.92-4.42.57.14.99.48,1.51.75-.26,1.01-.6,2.14-.42,3.18.11.74.11,1.46.35,2.18.53,1.69,1.7,3.25,3.25,4.14.92.44,1.79.84,2.82.87,1.31.05,2.8-.03,3.86-.9.86-.62,1.42-1.6,1.49-2.65.05-1.45-.15-2.88-.6-4.25-.32.51-.5,1.08-.8,1.61-.32-.32-.62-.65-.95-.95-.59-.54-1.27-.92-1.84-1.46-.02-.14-5.29-3.27-8.12-3.91.12-.36.31-.79.57-1.23.56-1.22,1.19-2.49,2.12-3.44.62-.78,1.27-1.54,1.93-2.28.45-.62,1.07-1.02,1.55-1.6-.47-.71-.75-1.45-1.33-2.09-.5-.63-1.1-1.15-1.7-1.66.33.03.62,0,.9.2,1.22.75,1.81,1.97,2.77,2.97.29.32.74.36,1.15.27.3-.12.75-.41.82-.87.08-.5-2.94-5.58-2.94-5.58-1.01-1.64-2.26-3.09-3.47-4.58-.44-.53-2.74-2.62-3.5-3.12-.15.81-.24,1.63-.32,2.46,0-.15-.06.72-.07,1.69,0,.86-.14,1.83.02,2.43.21,2.37,1.31,6.73,1.31,6.74.36,1.01,1.16,3.06,1.16,3.06.23.39.51.77.69,1.18-.05.36-.48.63-.72.87-1.19-1.43-1.75-3.07-2.23-4.85.02-.09-.3-1.31-.56-2.41-.2-.87-.35-1.69-.35-1.69,0,0-.3-2.55-.37-3.41-.03-.75,0-2.11.1-3.15.12-1.24.3-2.12.28-2.19.02-.08.03-.15.05-.23,0,0,.06-.5.21-.95.25-.74.6-.83.8-.74h0Z" fill="#0e2e48"></path>
  <path d="M61.33,2.34c-.39.39-.89.47-1.37.71-.98.44-1.93.93-2.83,1.54-.23.17-.47.2-.72.24,1.02-.78,2.14-1.31,3.3-1.9.53-.27,1.07-.42,1.64-.57l-.02-.02h0Z" fill="#183f5c"></path>
  <path d="M62.28,3.23c1.15,2.41,1.33,5.44,1.28,8.08-.05,4.34-1.19,8.62-3.25,12.45-.06-.41.14-.71.3-1.07,1.61-3.19,2.49-6.77,2.65-10.32.17-1.27.08-2.5-.02-3.77-.03-1.31-.3-2.64-.63-3.9-.11-.5-.48-.96-.35-1.46,0,0,.02,0,.02,0Z" fill="#1a415d"></path>
  <path d="M60.62,3.85c-1.12.6-2.2,1.31-3.15,2.12-1.15.89-2.09,1.96-3.12,2.98.11-.63.6-.89,1.01-1.33,1.36-1.43,2.91-2.7,4.61-3.69.23-.15.38-.14.65-.09h0Z" fill="#173e5b"></path>
  <path d="M61.57,3.8c.3.74.5,1.54.75,2.29.21.62.2,1.24.24,1.88.18,1.4.18,2.86.02,4.28-.08-.27-.14-.54-.17-.81.12-1.4.02-2.79-.12-4.17-.17-1.15-.54-2.26-.89-3.36l.15-.09.02-.02h0Z" fill="#19405d"></path>
  <path d="M46.29,10.25l-.06.06.06-.06Z" fill="#868b8f"></path>
  <path d="M39.74,11.59c.29-.03.54,0,.83.03-.29.17-.57.35-.83.56-1.08.84-2.17,1.7-3.22,2.58-.71.5-4.55,3.32-5.41,4.02-.59.41-1.16.83-1.72,1.28-.15,2.25-.45,4.51-.63,6.77-.08.38-.13.62-.55.79-.05.02-.06-.17-.06-.25-.05-1.43.44-2.85.52-4.3.11-.95.2-1.9.3-2.85.03-.23.11-.44.3-.59,2.09-1.72,4.38-3.18,6.49-4.88,1.37-1.01,2.65-2.12,4.01-3.15h-.03,0Z" fill="#e9a348"></path>
  <path d="M28.03,11.77v.17c-.54.63-.83,1.33-1.25,2.06-1.36,2.35-1.99,5.08-2.2,7.76-.11,1.88-.24,3.77-.21,5.65,0,.11.01.24-.03.33-.03.06-.12.08-.16.14-.05-.07-.16-.06-.21-.13-.05-.06-.03-.19-.08-.25.02-.11.03-2.47.12-3.56.05-.45.09-.9.09-1.36.14-2.94.69-5.83,2.03-8.48.06-.12.11-.23.17-.33.33-.53.63-1.07.93-1.61.24-.18.53-.3.81-.41l-.02.02h0Z" fill="#eea849"></path>
  <path d="M55.62,13.73c-.32.53-.77.81-1.19,1.25-.23-.35.3-.59.5-.81-.68.09-1.16.48-1.76.77-.84.44-1.64.96-2.41,1.52-.33.21-.6.56-1.02.54.81-.72,1.75-1.33,2.68-1.9,1.08-.56,1.94-1.22,3.19-1.36l.02-.02h0Z" fill="#173d59"></path>
  <path d="M62.12,15.13c.2.56,0,1.01-.11,1.55-.24,1.02-.39,2.05-.75,3.06l-.17-.17c.45-1.45.72-2.95,1.02-4.45Z" fill="#183e5a"></path>
  <path d="M44.75,13.35s.18.06.18.17c0,.05-.07.1-.14.19-.66.85-3.23,3.13-3.8,3.56-1.18.86-2.38,1.67-3.48,2.61,0,.5.03.93-.42,1.27-.56.38-1.07.18-1.64-.03-.2.18-.39.35-.6.53-.6.45-1.21.89-1.78,1.37-.39.3-.68.63-1.19.71.02-.39.29-.53.56-.75.95-.72,1.84-1.51,2.82-2.2-.09-.33-.21-.65-.15-1.01.09-.27.35-.51.56-.72.66-.39,1.19-.23,1.72.29.29-.18.56-.38.81-.57.06-.05.11-.08.17-.12,1.34-.98,2.49-1.81,3.98-3.04l2.42-2.24h0Z" fill="#d49447"></path>
  <path d="M51.58,18.67c.9.33,1.67,1.02,2.43,1.63-.48.03-.89-.48-1.27-.72-.36-.3-.92-.48-1.15-.89l-.02-.02Z" fill="#183f5b"></path>
  <path d="M36.29,19.29c.41.08.54.26.78.47.14.32,0,.66-.29.93-.24.24-.6.14-.87.05-.33-.11-.38-.42-.38-.66-.05-.41.35-.75.77-.77l-.02-.02h0Z" fill="#121944"></path>
  <path d="M19.43,20.98c.81-.14,1.64.5,1.67,1.33.06.53-.21.87-.33,1.36.08.36.24.69.3,1.05.03.27-.29.57-.54.39-.36-.18-.47-.71-.62-1.07-.45-.15-.99-.26-1.31-.63-.23-.29-.38-.71-.36-1.07.09-.62.57-1.21,1.18-1.36h.02Z" fill="#0c1646"></path>
  <path d="M19.28,21.26c.38-.06.84-.09,1.16.17.3.23.44.66.48,1.02.03.42-.26.72-.44,1.07.06.45.36.87.45,1.33-.14.09-.21.22-.34.13-.03-.04-.14-.22-.17-.26-.2-.29-.35-.64-.4-.98-.5-.15-.91-.07-1.24-.49-.53-.66-.27-1.66.51-1.99,0,0-.02,0-.02,0Z" fill="#da9444"></path>
  <path d="M20.16,21.87c.33.23.27.78.18,1.02-.08.21-.41.31-.63.31-.41.11-.59-.27-.74-.59-.17-.66.69-1.19,1.19-.72,0,0,0-.02,0-.02Z" fill="#081145"></path>
  <path d="M19.44,22.03c.23-.11.45-.09.65.06.18.33.09.87-.38.86-.5.02-.65-.71-.27-.92Z" fill="#0f2d48"></path>
  <path d="M36.06,19.66c.23-.11.45-.09.65.06.18.33.09.87-.38.86-.5.02-.65-.71-.27-.92Z" fill="#0f2d48"></path>
  <path d="M57.78,25.38c1.18,2.46,1.42,5.32,1.22,8-.27-.93-.03-1.94-.18-2.92-.06-1.49-.41-2.91-.92-4.31-.11-.27-.15-.48-.12-.77Z" fill="#19405c"></path>
  <path d="M48.64,26.22c.5,0,.92.18,1.37.36-.96.53-2.11.84-3.01,1.48-.09.06-.14.15-.14.27-.08,1.82.09,3.54-.62,5.3-.36.84-.8,1.69-1.36,2.41-.99,1.13-2.38,2.14-3.78,2.7-1.79.68-3.87.71-5.73.26-1.45-.47-2.79-1.37-3.78-2.5.11-.18.29-.39.29-.6-.12-.2-.27-.39-.41-.56.33,0,.6.05.84-.24,0-.23,0-.45-.02-.66.09-.11.2-.21.27-.32.08-.26,0-.56.06-.81.14-.14.29-.26.44-.38-.11-.03-.21-.06-.32-.09-.02-.08-.03-.15-.05-.21-.24-.09-.47-.18-.71-.27.92-.56,1.9-.98,2.8-1.55,1.37-.71,2.77-1.4,4.2-1.99,1.51-.65,2.92-1.34,4.51-1.82.89-.27,1.81-.44,2.71-.63.77-.18,1.63-.12,2.41-.12v-.02h0Z" fill="#08111e"></path>
  <path d="M13.13,27.34c.26.03.51.03.77,0,1.51.68,2.91,1.61,4.25,2.58.59.53,1.27.92,1.84,1.46.33.3.63.63.95.95.3-.53.48-1.1.8-1.61.45,1.37.66,2.8.6,4.25-.08,1.05-.63,2.03-1.49,2.65-1.05.87-2.55.95-3.86.9-1.04-.03-1.91-.44-2.82-.87-1.55-.89-2.71-2.44-3.25-4.14-.24-.72-.24-1.45-.35-2.18-.18-1.04.17-2.17.42-3.18.38-.08.62-.03.98.11.33-.08.66-.11.98-.18.12-.2.12-.5.17-.72h.02Z" fill="#0a111e"></path>
  <path d="M41.48,30.96c.06.07.1.15.14.2.61.91.26,1.97-.57,2.62-.83.67-1.98.85-2.89.22-.08-.11-.14-.22-.22-.33-.5-.8-.28-1.6.26-2.3.97-.63,2.16-1.06,3.27-.41h0Z" fill="#f4f3e6"></path>
  <path d="M44.6,28.91c.3.74.22,1.6.13,2.37-.27,2-1.36,3.88-3.01,5.04-1.16.87-2.56,1.34-4,1.21-1.19-.13-2.37-.48-3.34-1.23-.62-.5-1.12-1.16-1.57-1.81.04-.05.36-.54.49-.74.07-.05,3.13-1.52,3.34-1.63.51-.26,1-.5,1.52-.73-.24.81-.59,1.45-.11,2.26,0,0,.62.66.95.69,1.2.26,2.41-.63,2.63-1.83.06-.44-.06-.84-.24-1.23,0,0-.84-.65-1.17-.84.35-.13,3.34-1.29,4.42-1.52l-.03-.03h0Z" fill="#e77408"></path>
  <path d="M13.02,29.06c.29.12,1.8,1.05,2.77,1.68.41.27.77.58.83.58.14.09.26.2.39.3-.15-.06-.3-.11-.45-.15-.14.14-.27.29-.41.44l-.24-.06c-.48.83-.12,1.87.71,2.29.54.23,1.16.41,1.6-.11.29-.23.51-.45.71-.74.45.39,1.15.86,1.08,1.54.05.53-.41,1.02-.81,1.3-.89.66-2.08.81-3.15.56-1.3-.3-2.34-1.37-2.91-2.53.04-.14-.22-.57-.33-1.05-.07-.31-.24-1.11-.24-1.11,0,0-.1-1.4.04-1.83.12-.46.27-.79.42-1.1h0Z" fill="#e87509"></path>
  <path d="M57.64,29.96c-1.84.96-3.8,1.76-5.58,2.85-.51-.35-1.13-.36-1.66-.06l-.08-.21c.23-.11.48-.26.72-.27.35,0,.68.15,1.01.2.48-.14.92-.47,1.37-.69,1.04-.53,2.09-1.01,3.13-1.54.36-.17.63-.41,1.05-.27h.02Z" fill="#121744"></path>
  <path d="M58.02,29.85c-.05.27.03.53-.23.69-.62.47-1.36.78-2.06,1.12-.24.12-.41.12-.66.06.87-.42,1.93-.77,2.68-1.39.08-.11.14-.24.15-.41l.14-.08h-.02Z" fill="#191a41"></path>
  <path d="M57.64,29.96l.24-.03c-.03.17-.08.3-.15.41-.75.62-1.81.96-2.68,1.39-.15.08-.3.15-.44.23-.78.42-1.6.77-2.37,1.21.08.35.29.78.06,1.12-.33.72-1.27.92-1.91.48-.57-.57-.56-1.43,0-2.02.54-.3,1.15-.3,1.66.06,1.78-1.07,3.74-1.87,5.58-2.85l.02.02h0Z" fill="#d29045"></path>
  <path d="M28.36,30.06c.5.75.44,1.88.77,2.71.15.27.3.6.68.51.77-.12,1.51-.62,2.2-.96.24.09.47.18.71.27.02.08.03.15.05.21.11.03.21.06.32.09-.15.12-.3.24-.44.38-.08.24,0,.56-.06.81-.08.12-.18.21-.27.32.02.23.03.45.02.66-.24.29-.51.26-.84.24.15.18.3.36.41.56,0,.21-.2.42-.29.6-.21-.21-.44-.41-.68-.59-.27.84-.81,1.45-1.33,2.14-.29-1.19-.63-2.34-1.08-3.48-.57-1.4-.54-3.06-.17-4.51l.02.03h0Z" fill="#011021"></path>
  <path d="M16.31,31.22c.18.05.36.11.53.18.78.65,1.57,1.27,2.28,2.02-.23.36-.52.64-.84.89-.73.07-1.57.25-2.14-.36-.64-.6-.8-1.45-.3-2.2.16-.18.32-.35.48-.53h-.02Z" fill="#f7f7ea"></path>
  <path d="M54.61,31.95c-.12.18-.18.36-.39.45-.53.29-1.08.53-1.63.8,0,.36.05.78-.06,1.13-.24.53-.78.83-1.33.92-.3.06-.62-.15-.87-.27l.08-.23c.65.44,1.58.23,1.91-.48.23-.33.03-.77-.06-1.12.77-.44,1.58-.78,2.37-1.21h-.02Z" fill="#121741"></path>
  <path d="M50.9,32.99c.41-.02.75.08.93.47.3.56-.41,1.36-.99.95-.44-.21-.39-.53-.41-.95.14-.17.29-.33.45-.47h.02Z" fill="#0c1643"></path>
  <path d="M50.78,33.33c.24-.12.89-.12.86.27,0,.23,0,.42-.18.56-.23.08-.53.06-.69-.14-.09-.23-.06-.47,0-.69h.02Z" fill="#0e2b47"></path>
  <path d="M55.77,36.24c0,.15.02.32.03.47-.62.42-1.16.95-1.78,1.37-.33.23-.63.47-.95.72-.93.68-1.81,1.4-2.73,2.08-.39.3-.8.57-1.18.9l-.27.11c0-.42.23-.6.54-.86,1.82-1.42,3.62-2.86,5.48-4.22.17-.12.33-.23.5-.33.12-.08.23-.17.35-.24h0Z" fill="#e5a542"></path>
  <path d="M54.93,36.82c-1.85,1.36-3.66,2.8-5.48,4.22-.3.26-.53.44-.54.86l.27-.11-.05.27c-.26-.06-.44-.17-.45-.45.14-.42.6-.74.93-1.01,1.07-.78,2.08-1.64,3.15-2.43.57-.42,1.1-.92,1.7-1.28.14-.05.29-.08.45-.08h.02Z" fill="#121741"></path>
  <path d="M55.8,36.71l.03.24c-.77.57-1.48,1.21-2.26,1.75-.2.15-.26.15-.5.11.3-.26.62-.5.95-.72.62-.42,1.16-.95,1.78-1.37h0Z" fill="#1a1d43"></path>
  <path d="M25.44,40.7v.27c-1.33.2-2.58.27-3.89-.03.23-.12.45-.21.71-.23,1.12-.12,2.08-.41,3.18,0v-.02h0Z" fill="#d6a35d"></path>
  <path d="M23.66,40.7c.39,0,.77-.02,1.16-.02v.15c-.39,0-.78,0-1.18-.02v-.12h.02,0Z" fill="#a2714a"></path>
  <path d="M5.74,40.95c.71,0,1.45-.06,2.14.05l.15.41c-1.15.03-2.44-.24-3.54.08-.45.09-.92.14-1.39.21-1.07.09-2.03.56-3.1.63.35-.26.74-.38,1.16-.5,1.46-.5,3.04-.71,4.57-.87h.02Z" fill="#9a7651"></path>
  <path d="M10.96,41.31c1.24.36,2.49.71,3.72,1.04.26.18.66.24.69.6-.24-.03-.47-.08-.71-.11-.98-.3-1.94-.6-2.95-.83-.5-.11-.95-.27-1.42-.5.21-.24.32-.29.65-.21h.02Z" fill="#dd983d"></path>
  <path d="M11.2,42.19c.72.09,1.48.2,2.18.44.18.06.32.17.45.3.24.24.47.48.72.71-.45.11-.9.23-1.37.33-.33.03-.68.06-1.01.03-.53-.41-.77-1.21-.98-1.81h0Z" fill="#061f36"></path>
  <path d="M40.96,42.29c2.97.17,5.82.59,8.51,1.88l-.23.17c-1.6-.75-3.3-1.25-5.06-1.48l-.23-.03c-.27-.06-.54-.12-.81-.15h-.15c-.35-.05-.69-.08-1.02-.11-.18-.02-.35-.03-.53-.06h-.11c-1.48-.08-3.06-.08-4.55,0-.14,0-.29.03-.42.05-.65.06-1.28.06-1.91.24-.56.15-1.3.14-1.78.45l-.08.29c.32-.06.65-.12.96-.17l-.06.32c-.35,0-.69,0-1.04-.03,0-.33-.03-.6.33-.75,1.34-.41,2.8-.6,4.22-.65,1.31-.14,2.59-.15,3.92,0l.03.03h0Z" fill="#0c123e"></path>
  <path d="M36.82,42.53c.27.08.54.14.83.12.95-.02,1.91,0,2.86,0,.3,0,.57-.05.86-.12h.11c.24.53,1.15.27,1.55.17h.15c-.02.09-.05.17-.06.24.32.12.57.05.86-.08l.23.03c-.53.42-1.12.06-1.73.06-1.7-.26-3.41-.09-5.12-.2-.33-.02-.63-.11-.95-.18.14-.02.29-.03.42-.05h0Z" fill="#c78844"></path>
  <path d="M36.82,42.53c1.48-.06,3.07-.08,4.55,0-.29.08-.56.14-.86.12h-2.86c-.29,0-.56-.06-.83-.12Z" fill="#f7c350"></path>
  <path d="M41.46,42.54c.18.02.35.05.53.06.35.03.69.06,1.02.09-.42.11-1.33.36-1.55-.15Z" fill="#cda54a"></path>
  <path d="M36.39,42.57c.32.08.62.15.95.18,1.72.11,3.42-.06,5.12.2.62,0,1.21.36,1.73-.06,1.76.21,3.45.72,5.06,1.48.32.17.41.26.51.62-.74-.39-1.49-.6-2.29-.86-2.03-.6-4.17-.93-6.28-1.05-2.52-.3-5.09,0-7.59.35-.32.05-.65.11-.96.17l.08-.29c.48-.33,1.22-.3,1.78-.45.63-.18,1.27-.18,1.91-.24l-.02-.03h0Z" fill="#e09f48"></path>
  <path d="M43.16,42.71c.27.03.54.09.81.15-.29.14-.56.2-.86.08.02-.08.03-.15.06-.23h-.02,0Z" fill="#deab4a"></path>
  <path d="M49.91,43.26c.05.12.11.23.15.35.24.05.47.12.69.2.23-.06.47-.12.69-.2.08.09.17.2.26.29.09.03.18.06.29.08-.18.21-.41.35-.65.47.08.12.17.26.24.38-.18.11-.33.2-.44.36.33-.11.63-.26.93-.44v.41c-.18.03-.36.06-.56.11.02.12.03.26.05.38-.12-.02-.26-.05-.38-.08.02.32.06.63.12.93-.35.23-.69.45-.99.74l.05.14c-.84.53-1.69,1.08-2.59,1.51-.3-.06-.48,0-.75.12-.78.38-1.58.71-2.43.9-.69.14-1.46.08-2.15.05.29-.12.56-.23.8-.42.17-.12.32-.26.51-.33.26-.03.53,0,.78.02l-.08-.05v-.21c.03-.29-.15-.45-.27-.69.15-.29.39-.57.3-.9-.24-.65-.8-.89-1.36-1.21.12-.14.21-.32.38-.38.96-.41,1.84-.24,2.85-.38,1.27-.14,2.49.21,3.71.29.27-.26-.2-.53-.32-.77-.11-.36-.2-.45-.51-.62l.23-.17c0-.24-.03-.5-.03-.74.12-.2.27-.17.47-.18l.02.06h0Z" fill="#0c2a43"></path>
  <path d="M15.45,44.18c.17.09.36.36.03.38-.5.03-.99,0-1.49.03-.48,0-1.05.15-1.51,0l-.03-.26c.96-.11,2.02-.27,2.98-.15h.02Z" fill="#f7b349"></path>
  <path d="M33.8,44.82c3.13.33,6.55,1.08,9.18,2.91.5.41,1.1.75,1.49,1.25v.21c-.83-.39-1.49-.99-2.28-1.45-1.43-.8-2.97-1.37-4.55-1.76-1.3-.29-2.62-.51-3.93-.72-.47-.09-.87.03-1.27-.29.44-.3.87-.21,1.36-.15h0Z" fill="#d89949"></path>
  <path d="M9.13,45.13c.36,0,.6-.11.81.29-1.12.17-2.18.72-3.18,1.21-.47.23-.92.35-1.24.77h-.02c-.74,0-1.08.75-1.84.8,1.63-1.31,3.53-2.34,5.48-3.06h-.03,0Z" fill="#b9864d"></path>
  <path d="M58.21,45.93c.84.8,1.4,1.9,2.09,2.83-.12.89,0,1.81-.09,2.71-.08.62-.12,1.24-.27,1.84-.66.6-1.33,1.33-1.97,1.93-.18.03-.32.03-.47.18-1.63,1.63-3.25,3.27-4.9,4.9-.23.26-.62.44-.56.83-.41.45-.86.83-1.31,1.22-.44.39-.83.83-1.3,1.21-.54.09-.86.47-1.27.78v-.65c-.2.17-.38.33-.56.5-.12-.14-.24-.27-.36-.41h-.69c-.08.27.03.96-.42.84-.15-.11-.3-.23-.44-.36-.2.02-.39.05-.59.06.08-.14.14-.29.21-.42.17.06.35.14.51.2.15-.06.3-.14.45-.2.21-.45.45-.89.72-1.31-.3,0-.59,0-.89-.05.32-.3.47-.42.45-.89-.18,0-.35.02-.53.02.41-.32.98-.33,1.45-.57-.18-.15-.38-.15-.6-.17-.06-.12-.11-.23-.17-.35.09-.06.2-.14.29-.2.21.18.42.38.63.57.12-.06.23-.11.35-.17.08.06.15.14.21.2-.03-.18-.05-.35-.08-.53.12-.05.23-.08.35-.12,0-.12.02-.24.03-.35-.26.15-.53.29-.8.39.29-.38.69-.62.99-.98.86-.57,1.55-1.24,2.28-1.94,3.06-2.38,5.36-5.77,6.77-9.36.26-.69.3-1.46.47-2.18v-.02h0Z" fill="#0c2a43"></path>
  <path d="M51.33,46.5l.41-.08c-.42.35-.87.66-1.34.95l-.05-.14c.3-.29.65-.51.99-.74h-.02Z" fill="#153b56"></path>
  <path d="M5.79,47.24c-.47.35-.99.6-1.48.93-.57.36-1.04.8-1.67,1.07.27-.51.86-.84,1.3-1.22.77-.05,1.12-.8,1.84-.78h.02Z" fill="#927d68"></path>
  <path d="M23.8,47.45c.62.39,1.18.86,1.84,1.19,1.91,1.13,4.13,1.72,6.36,1.72-.18.14-.36.27-.57.38-1.34.65-2.68,1.19-4.16,1.45-.98.17-1.9.38-2.89.17-1.25-.17-2.43-.66-3.36-1.49-.39-.36-.53-.83-.65-1.34.57-.33,1.15-.68,1.66-1.1.51-.47,1.22-.57,1.79-.95l-.02-.02h0Z" fill="#0c2b44"></path>
  <path d="M54.55,48.48c-.11.56-.53,1.01-.84,1.48-.71.92-1.42,1.84-2.17,2.7.09-.27.17-.53.26-.8-.29.26-.56.5-.95.57.47-.51.98-.98,1.46-1.48.51-.53,1.05-.93,1.48-1.54.26-.35.39-.71.78-.95l-.02.02h0Z" fill="#0b2840"></path>
  <path d="M47.8,48.9c-1.01.48-2.12.99-3.22,1.24-.87.09-1.78.08-2.64-.03-.42-.08-.81-.08-1.16-.33.5,0,.92.09,1.4-.05.36-.09.72-.14,1.08-.17-.24.2-.51.3-.8.42.71.03,1.46.08,2.15-.05.86-.2,1.64-.53,2.43-.9.27-.14.45-.18.75-.12v-.02h0Z" fill="#143752"></path>
  <path d="M60.31,48.75c.11.18.23.35.32.53.14.75.06,1.48-.05,2.23-.08.66.02,1.64-.48,2.14-1.33,1.48-2.79,2.82-4.14,4.26-1.58,1.49-3.04,3.1-4.66,4.55-2.52,2.37-5.09,4.66-7.67,6.96-.41.35-.81.68-1.16,1.08.03,1.12-.15,2.22-.17,3.35-.09.87-.12,1.75-.2,2.62.45.27.81.56.83,1.13.14.72-.48,1.43-1.22,1.37-.6.03-1.07-.48-1.12-1.05-.05-.38.11-.68.26-1.01.27-.21.57-.38.87-.54,0-1.25.18-2.49.18-3.74.11-.83.08-1.7.3-2.52.27-.26.54-.51.83-.75,1.7-1.54,3.44-3.06,5.12-4.63.42-.41.84-.8,1.28-1.18.47-.38.84-.8,1.3-1.21s.9-.78,1.31-1.22c2-1.93,3.96-3.92,5.91-5.91.66-.62,1.31-1.33,1.97-1.93.15-.6.2-1.22.27-1.84.11-.9-.03-1.82.09-2.71h.02Z" fill="#e69736"></path>
  <path d="M60.62,49.29c.57.2.89.62,1.36.98,1.1.87,2.15,1.76,3.39,2.47.84.47,1.51,1.07,2.22,1.7,1.99,1.93,3.81,4.07,5.38,6.36-.03.23,1.87,3.07,2.52,4.49,1.18,2.65,2.31,5.34,2.52,8.26.05,1.02.12,2.12,0,3.13-.08,1.72-1.04,6.5-1.04,6.5,0,0-1.33,3.42-1.32,3.54-.54,1.39-1.37,2.56-2.29,3.71-.47.53-.98,1.04-1.43,1.58-.53.62-1.27.93-1.81,1.52,1.01.17,1.96-.26,2.98-.09-.98,1.55-2.7,2.41-4.51,2.5-.27-.06-12.97-.05-13.25,0-.53.08-1.05-.09-1.31-.57-.29-.57,0-1.21.27-1.73.38-.6.95-.83,1.57-1.08-.3-.26-.63-.54-1.07-.51-.38.05-.74.27-1.05.47-.56.38-1.07.71-1.39,1.33-.33.62-.35,1.27-.33,1.96-.42.02-.86.08-1.28,0-.68-.42-.66-1.05-.65-1.78,0-.77.45-1.43.86-2.03.3-.47.74-.66,1.16-1.01-.81.08-1.6.51-2.25.98-1.05.86-1.72,2.22-1.73,3.57,0,.26-.21.3-.42.3-.24,0-.59.06-.75-.15-.39-.47-.33-1.24-.29-1.81.17-1.63,1.21-3.06,2.65-3.8.92-.51,2.02-.6,3.04-.56,1.21.11,2.41.2,3.6.48,1.02.17,2,.45,3.03.59.75.12,1.49.32,2.26.38.87.06,1.7.21,2.56.2.98,0,1.91-.2,2.89-.26-.9-.5-2.06-.51-3.06-.78-2.41-.6-4.88-1.21-7.17-2.2-.84-.41-1.69-.9-2.35-1.57-.78-.86-1.48-1.88-1.84-3-.63-1.84-.89-3.86-.33-5.76.23-.78.44-1.6.68-2.37.36-.26.45-.6.66-.96.54-.89,1.18-1.7,1.84-2.49.33.03.45-.21.66-.42,1.42-1.55,3.03-2.85,5.03-3.54.95-.3,1.99-.66,2.98-.65.86,0,1.72-.03,2.56.03.44.03.89.14,1.34.12l.17-.14.14-.12c.8.11,1.54.12,2.29.42-.71-.93-1.63-1.66-2.65-2.2-1.93-1.12-4.29-1.21-6.45-.9-2.26.41-4.4,1.57-6.09,3.12-.51.45-.98.95-1.57,1.33-.03-.89.29-1.64.56-2.47.26-.72.41-1.48.5-2.23-.51.45-.77,1.02-1.15,1.58-.47.71-.92,1.43-1.34,2.15-.11-.09-.21-.18-.32-.27.09-.09.2-.2.29-.3.03-.51.44-.74.74-1.12-.15,0-.3.03-.47.05.21-.32.38-.5.72-.68-.33-.39-.53-.27-.98-.21-.09-.12-.18-.24-.26-.36-.12.06-.26.14-.38.2-.05-.08-.09-.15-.14-.23.24-.09.48-.17.71-.26l-.17-.17c-.26,0-.42,0-.6-.18.53-.26.86.11,1.36.27-.09-.18-.17-.36-.26-.54.56-.12,1.05-.27,1.52-.6-.33,0-.68-.02-1.01-.05.02.12.05.24.06.38-.44.03-.83-.02-1.25-.12-.14-.39-.09-.78-.21-1.18.63-.51,1.16-1.13,1.76-1.7.86-.8,1.64-1.66,2.49-2.49.17-.15.17-.24.18-.45,1.36-1.45,2.82-2.79,4.14-4.26.5-.5.42-1.48.48-2.14.11-.75.18-1.48.05-2.23l.02.08h0Z" fill="#0c2a42"></path>
  <path d="M51.79,51.87c-.09.27-.18.53-.26.8-.47.74-1.13,1.31-1.73,1.99-.6.62-1.08,1.3-1.67,1.91.08.09.15.18.23.27-.27.11-.56.21-.84.3.08.18.14.38.2.56-.24.27-.65.48-.65.89-.86.75-1.67,1.6-2.55,2.32-.21.08-.41.09-.57.26-1.1,1.02-2.11,2.11-3.19,3.15-.17.17-.17.23-.18.45-.93,1.01-1.93,1.96-2.85,3-.15.27-.08.72-.12,1.04-.11.98-.15,1.94-.12,2.94.03,1.05-.2,2.09-.15,3.16.05,1.31-.15,2.61-.18,3.92-.2,1.78-.23,3.48-.66,5.17-.24,1.01-.63,1.99-.84,3.01l.32-.06c.27-.57.38-1.21.59-1.81.5-1.51.77-3.06.87-4.64.09-1.31.24-2.61.26-3.92.12-1.05.11-2.11.14-3.16.11-.92.15-1.79.14-2.71-.03-.86.14-1.7.14-2.56-.02-.27.18-.39.35-.57,1.81-1.72,3.5-3.54,5.32-5.23,1.02-1.02,2.08-2.03,3.15-3.01.51.06.78-.54,1.21-.77.39-.2.8-.36,1.19-.56-.2.53-.56.93-.9,1.37l.3.08c-.3.36-.72.6-.99.98.27-.12.54-.26.8-.39,0,.12-.03.24-.03.35-.12.03-.23.08-.35.12.03.18.05.35.08.53-.08-.06-.15-.14-.21-.2-.12.06-.23.11-.35.17-.21-.18-.42-.38-.63-.57-.09.06-.2.14-.29.2.05.12.11.24.17.35.23.02.42,0,.6.17-.45.24-1.04.26-1.45.57.18,0,.35,0,.53-.02,0,.47-.14.59-.45.89.3.03.59.05.89.05-.27.42-.51.86-.72,1.31-.15.06-.3.14-.45.2-.17-.08-.35-.14-.51-.2-.08.14-.14.29-.21.42.2-.02.39-.05.59-.06.15.12.29.26.44.36.45.11.35-.57.42-.84h.69c.12.14.24.27.36.41.18-.17.38-.33.56-.5v1.04c-1.69,1.57-3.42,3.09-5.12,4.63-.63-.05-1.16.74-1.19,1.31-.26,1.84-.26,3.68-.38,5.5-.29.23-.66.3-.62.72-.14.33-.29.63-.26,1.01.06.57.51,1.08,1.12,1.05.72.06,1.34-.65,1.22-1.37,0-.57-.38-.86-.83-1.13.08-.87.11-1.75.2-2.62.02-1.12.2-2.22.17-3.35.35-.41.75-.74,1.16-1.08,2.56-2.31,5.15-4.6,7.67-6.96l.24.08c.12.39.08.78.21,1.18.42.11.81.15,1.25.12-.02-.12-.05-.26-.06-.38.33.03.68.05,1.01.05-.47.33-.96.48-1.52.6.09.18.17.36.26.54-.5-.17-.81-.54-1.36-.27.18.2.36.17.6.18l.17.17c-.24.09-.48.17-.71.26.05.08.09.15.14.23.12-.06.26-.14.38-.2.09.12.18.24.26.36.45-.05.65-.18.98.21-.35.18-.51.36-.72.68.15,0,.3-.03.47-.05-.32.36-.71.6-.74,1.12-.09.09-.2.2-.29.3.11.09.21.18.32.27-.51.98-1.04,1.96-1.52,2.95-.84,1.81-1.7,3.59-2.65,5.35-1.05,2.15-2.17,4.28-3.18,6.45-1.21,2.41-2.23,4.91-3.09,7.47-.45,1.21-.8,2.37-1.49,3.47-.33.51-.71,1.03-2.43,2.29-.75.36-2.09.2-2.92.2-.27,0-.41-.11-.49-.35-.05-.18-.13-.47-.16-.75-.05-.35-.05-.67-.05-.67l.04-.41s.22-.91.33-1.2c.21-.53,1.07-1.16,1.07-1.16-.32-.12-.57-.09-.89.03-.98.39-1.85,1.08-2.34,2.03-.33.63-.38,1.4-.56,2.11l-.12.42s-1.7.08-2.15-.19c-.54-.93-.37-2-.32-2.16.05-1.04.63-1.67,1.19-2.49-1.33.26-2.32,1.08-2.97,2.25,0,0-.39,1.48-.51,2.12-.17.05-.75-.03-.91,0-.03-.11-.17-.49-.21-.85-.04-.4-.08-.68-.06-.87.09-.74.51-1.39.87-2.03.48-.86,1.27-1.58,2.26-1.79.66-.15,1.33-.29,1.99-.42,1.21-.21,2.31-.26,3.36-.95-.51-.68-1.19-.51-1.87-.9.21-1.07.39-2.14.69-3.19.6-2.12.87-4.4,1.08-6.6.11-1.85.3-3.72.38-5.58.06-.89.15-1.81.06-2.7.02-.12-.24-.5-.3-.26-.18.69-.57,1.27-.93,1.88,0-.35-.05-.65-.21-.96-.05-.53-.03-1.04.05-1.57.11-.71.08-1.4.08-2.12.96-.89,1.99-1.72,2.92-2.65.53-.51,1.08-.86,1.46-1.46.44.18.92.51,1.4.27.95-.38.99-1.97.03-2.41-.84-.29-1.57.32-1.73,1.15.06.2.11.39.14.6-.09.2-.27.35-.42.48-1.43,1.28-2.86,2.56-4.25,3.87l-.15-.14c-.21.87-.11,1.67-.18,2.56-.11,1.12-.23,2.25.06,3.35l.14-.21c.09.14.18.27.27.39-.05.84-.2,1.66-.27,2.49-.08.68-.05,1.31-.32,1.94-2.02-.71-3.77-1.85-5.48-3.09-1.45-1.08-2.7-2.46-3.78-3.9-.65-.74-1.16-1.57-1.69-2.38-.39-.62-.62-1.25-1.12-1.81.12,1.21.41,2.4.71,3.56.21.83.63,1.48.65,2.35-.66-.81-1.34-1.55-1.85-2.49-1.31-2.38-2.14-4.97-1.84-7.72.12-1.79.27-3.92,1.22-5.5.18-.3.33-.59.68-.74.14.27.05.51.02.8-.06.41-.06.8-.05,1.21.05,1.02-.05,1.99.17,3.01.12.54.18,1.19.48,1.67h.14c.2-.33.14-.84.39-1.15.26-.33.47-.66.66-1.04.11.39.23.77.45,1.12.23-.11.45-.2.68-.3.08.23.15.45.21.68-.03.87,0,1.75.02,2.62.02.92.29,1.79.72,2.59.18.33.35.75.62,1.02.27.12.15-.41.08-.51-.33-.65-.95-1.39-.98-2.12.27-1.08.08-2.26.18-3.39.11.12.21.23.3.35.09,0,.17.02.26.03.03.11.06.23.09.33.05-.12.09-.24.14-.36,1.05-.44,1.94-1.13,2.98-1.57-.23.95-.92,1.67-1.1,2.62,1.05-.14,2.05-.95,2.92-1.51.96-.59,1.82-1.3,2.74-1.93,1.01-.69,2.02-1.39,3.01-2.12.48-.33.71-.83,1.34-.81-.33.54-.78.93-1.18,1.43-.69.86-1.48,1.64-2.12,2.55-.29.42-.68.74-.98,1.15.92-.24,1.52-.9,2.4-1.25.84-.36,1.46-.9,2.22-1.39,1.15-.74,2.28-1.52,3.33-2.4.65-.53,1.12-1.19,1.73-1.76-.23,1.16-.75,2.31-1.27,3.38.48.03.84-.11,1.27-.33,1.18-.62,2.43-1.02,3.59-1.69,1.45-.81,2.83-1.78,4.19-2.74.45-.33.86-.71,1.36-.99.39-.09.66-.32.95-.57l-.03-.02h0Z" fill="#09263d"></path>
  <path d="M53.6,52.59c-1.21,1.52-2.67,2.86-4.01,4.26-.93.78-1.78,1.64-2.68,2.44-1.07.98-2.12,1.97-3.15,3.01-1.82,1.69-3.51,3.53-5.32,5.23-.17.18-.36.3-.35.57,0,.86-.17,1.7-.14,2.56.02.92-.02,1.79-.14,2.71-.03,1.05,0,2.11-.14,3.16-.03,1.31-.17,2.61-.26,3.92-.12,1.58-.38,3.13-.87,4.64-.2.59-.32,1.24-.59,1.81l-.32.06c.21-1.02.6-1.99.84-3.01.45-1.67.48-3.39.66-5.17.02-1.31.23-2.61.18-3.92-.05-1.07.2-2.11.15-3.16-.03-.99.02-1.94.12-2.94.05-.32-.03-.77.12-1.04.92-1.02,1.91-1.99,2.85-3,1.34-1.27,2.59-2.61,3.95-3.86.87-.74,1.69-1.57,2.55-2.32,1.37-1.3,2.85-2.5,4.17-3.83.78-.72,1.51-1.54,2.37-2.14h-.02Z" fill="#e49434"></path>
  <path d="M64.9,54.87c.75-.03,1.33.63,1.36,1.34-.12.54-.5,1.07-1.08,1.16-.32.02-.63-.08-.95-.11-.29.5-.69.86-1.04,1.3-.59.71-1.22,1.39-1.81,2.09-.86.9-1.61,1.99-2.61,2.74-.03-.12-.05-.24-.03-.35.26-.42.62-.8.93-1.19,1.45-1.63,2.85-3.28,4.28-4.93-.12-.44-.23-.84-.11-1.3.17-.45.6-.65,1.02-.75l.03-.02h0Z" fill="#c68a41"></path>
  <path d="M57.96,55.23c-1.94,1.99-3.9,3.98-5.91,5.91-.06-.39.33-.57.56-.83,1.64-1.61,3.27-3.27,4.9-4.9.14-.15.27-.15.47-.18h-.02Z" fill="#060d40"></path>
  <path d="M65.72,56.06c.09.27-.23.56-.36.77-.23,0-.48.03-.69-.05-.14-.14-.26-.27-.38-.42.05-.33-.02-.59.27-.8.41-.44,1.08,0,1.16.5h0Z" fill="#0d1342"></path>
  <path d="M64.8,55.64c.42-.18.8.32.69.69-.15.23-.66.45-.84.15-.12-.3-.11-.6.15-.83v-.02Z" fill="#0c2844"></path>
  <path d="M24.25,56.54c-.87,2.71-.92,5.5-.77,8.32.03.75.65,1.48.98,2.12.08.11.2.63-.08.51-.27-.27-.42-.69-.62-1.02-.44-.8-.71-1.67-.72-2.59,0-.87-.06-1.75-.02-2.62.15-1.25.35-2.53.72-3.74.11-.38.21-.71.5-.99v.02h0Z" fill="#ed9e39"></path>
  <path d="M92.19,57.13c.6-.05,1.21-.03,1.81-.02.66.02,1.48.24,1.91.77-.05.36-.3.53-.56.74-.33.26-.63.54-.95.81-.38-.08-.51.26-.77.48-.84.83-1.37,1.93-1.57,3.09-.14,1.21-.14,2.43.2,3.62.05-.11.09-.21.12-.32.06.24.12.47.17.71-.14.65.2,1.1.39,1.7.23.51.3,1.07.8,1.39.44.56.75,1.21,1.13,1.81.39.65.72,1.33.96,2.05.54,1.63.92,3.3,1.01,5.02.06,1.48-.26,2.86-.71,4.25-.44,1.42-1.08,2.74-2.02,3.89-1.31,1.57-2.86,2.91-4.78,3.66-1.08.35-2.26.74-3.41.78-.56,0-1.1-.06-1.66-.12.57-.24,1.19-.29,1.78-.48.75-.21,1.43-.54,2.11-.92.17-.09.3-.23.44-.36-.44.11-.84.29-1.28.41-.93.27-2,.21-2.98.21-1.33-.05-2.4-.93-3.16-1.94.87-.03,1.7.03,2.58-.12,1.67-.23,3.41-.84,4.64-2.03.77-.74,1.61-1.48,2.09-2.43.86-1.51,1.15-3.36,1.08-5.09-.06-1.73-.75-3.28-1.51-4.82-.68-1.36-1.58-2.56-2.26-3.92-.23-.44-.44-.87-.63-1.33-.89-1.85-1.15-4.05-.72-6.07.6-2.76,2.95-4.96,5.74-5.39v-.02h0Z" fill="#0d2b45"></path>
  <path d="M55.95,57.91c0,.21,0,.3-.18.45-.84.81-1.63,1.69-2.49,2.49-.6.56-1.13,1.18-1.76,1.7l-.24-.08c1.61-1.45,3.07-3.07,4.66-4.55l.02-.02h0Z" fill="#070e3f"></path>
  <path d="M94.41,59.45c-.54.57-1.08,1.04-1.48,1.73-.39.66-.62,1.37-.69,2.12-.09,1.01-.11,2,.15,2.98-.05.11-.08.21-.12.32-.33-1.18-.33-2.4-.2-3.62.2-1.16.72-2.26,1.57-3.09.26-.23.38-.54.77-.48v.03h0Z" fill="#153b57"></path>
  <path d="M39.09,60.49c.95.44.92,2.02-.03,2.41-.48.24-.96-.08-1.4-.27-.38.6-.93.95-1.46,1.46-.93.92-1.96,1.76-2.92,2.65,0,.72.05,1.42-.08,2.12-.08.53-.09,1.04-.05,1.57-.03.71-.18,1.4-.2,2.12-.09-.14-.18-.26-.27-.39,0-1.22-.08-2.46.09-3.68.06-.63.05-1.27.05-1.9,1.39-1.31,2.82-2.59,4.25-3.87.15-.15.33-.3.42-.48-.03-.21-.09-.41-.14-.6.17-.83.89-1.43,1.73-1.15h0Z" fill="#d08835"></path>
  <path d="M61.41,60.65c.05.42-.27.59-.5.89-.65.69-1.25,1.55-2.05,2.06,0-.06-.03-.14-.05-.2.99-.77,1.75-1.84,2.61-2.74l-.02-.02h0Z" fill="#081040"></path>
  <path d="M38.31,60.94c.69-.29,1.28.59.89,1.18-.29.39-.75.45-1.13.14-.32-.39-.2-1.07.24-1.33v.02h0Z" fill="#0c223d"></path>
  <path d="M44.53,60.89c-1.34,1.25-2.61,2.59-3.95,3.86,0-.23,0-.3.18-.45,1.08-1.04,2.09-2.12,3.19-3.15.17-.17.36-.18.57-.26Z" fill="#040b3d"></path>
  <path d="M49.44,63.56c-.44.38-.86.77-1.28,1.18v-.39c.42-.32.72-.69,1.27-.78h.02Z" fill="#10123a"></path>
  <path d="M72.3,63.88c.23.32.33.68.47,1.05.38,1.12.78,2.18.96,3.36.14.83.14,1.82-.38,2.53-.62.92-1.31,1.79-2.11,2.56-1.05,0-2.09.03-3.15-.03-1.05-.08-2.05-.17-3.12-.11-.27.27-.5.54-.86.69-.33.15-.77.06-1.12.05-.44.5-.92.93-1.4,1.37-1.48,1.37-2.97,2.76-4.45,4.13-.11.09-.17.23-.17.38-.09.98-.06,1.94.23,2.89.35,1.34,1.13,2.52,2.08,3.51.33.38.75.45.68,1.05-.87-.77-1.75-1.42-2.35-2.44-1.04-1.63-1.39-3.66-.9-5.53.15-.26.42-.45.63-.66,1.66-1.54,3.28-3.09,4.97-4.58.14-.14.27-.26.38-.42-.08-.3-.26-.59-.33-.89.05-.48.3-.99.77-1.19.42-.11.95-.12,1.3.18.35.24.39.63.53,1.01,1.05,0,2.11-.05,3.15.08,1.01.12,2,.06,3.03.08.8-.84,1.6-1.78,2.14-2.8.29-1.02.03-2.29-.29-3.28-.32-.84-.54-1.69-.93-2.5.08-.14.14-.44.29-.47l-.05-.02h0Z" fill="#cf8938"></path>
  <path d="M29.97,66.61c.18.3.17.72.12,1.05-.17.45-.53.71-.95.89.08.6.06,1.21.14,1.81.12.75.32,1.48.56,2.18-.56-.05-.66-.68-.78-1.12-.17-.93-.3-1.91-.3-2.86-.23-.12-.48-.23-.68-.39-.44-.48-.56-1.24-.12-1.76.48-.66,1.64-.53,2,.18l.02.02Z" fill="#c27e32"></path>
  <path d="M29.06,66.45c.48.15.6.57.63,1.04-.24.26-.39.5-.78.5-.47,0-.65-.42-.75-.8.08-.42.42-.87.9-.75v.02Z" fill="#0b243c"></path>
  <path d="M32.67,66.45l.15.14c0,.63,0,1.27-.05,1.9-.15,1.21-.11,2.46-.09,3.68l-.14.21c-.29-1.1-.17-2.23-.06-3.35.09-.89-.03-1.69.18-2.56v-.02h0Z" fill="#040b37"></path>
  <path d="M63.56,66.33c1.04-.06,2.15.2,3.16.39.45.08.89.23,1.33.38l-.14.12c-.99-.15-2-.33-3.01-.32-1.87-.08-3.8.5-5.47,1.31-1.64.87-3.1,2.15-4.26,3.59-.66.78-1.3,1.6-1.84,2.49-.21.36-.3.72-.66.96.24-.87.75-1.73,1.22-2.49,1.12-1.79,2.62-3.33,4.32-4.57,1.6-1.01,3.44-1.69,5.32-1.88l.03.02h0Z" fill="#a8753e"></path>
  <path d="M64.92,66.91c1.01-.02,2.02.17,3.01.32l-.17.14c-.45.02-.9-.09-1.34-.12-.84-.08-1.72-.03-2.56-.03-.99-.02-2.03.35-2.98.65-2,.69-3.62,1.99-5.03,3.54-.21.21-.32.45-.66.42,1.16-1.45,2.62-2.71,4.26-3.59,1.67-.81,3.6-1.4,5.47-1.31v-.02h0Z" fill="#091240"></path>
  <path d="M92.57,67.01c.36,1.04.75,2.08,1.19,3.09-.5-.33-.57-.87-.8-1.39-.2-.59-.53-1.04-.39-1.7h0Z" fill="#153b56"></path>
  <path d="M91.3,69.15c.33.35.54.75.78,1.18.72,1.27,1.52,2.44,2.11,3.78.54,1.36.89,2.79.86,4.25.03,1.48-.15,3.04-.71,4.42-.15.33-.18.72-.53.92.08-.75.44-1.45.57-2.2.45-2.05.41-4.28-.29-6.27-.39-1.27-1.12-2.49-1.79-3.62-.35-.57-.63-1.16-1.04-1.69,0-.26,0-.5.03-.75v-.02h0Z" fill="#de9640"></path>
  <path d="M43.04,69.36c-.29.24-.56.5-.83.75-.23.81-.21,1.67-.3,2.52,0,1.25-.18,2.49-.18,3.74-.3.15-.6.33-.87.54-.03-.42.35-.5.62-.72.12-1.82.12-3.66.38-5.5.05-.57.56-1.36,1.19-1.31v-.02Z" fill="#070c3a"></path>
  <path d="M63.29,72.05c.36-.08.68-.08.92.24.47.48.02,1.37-.65,1.25-.74-.08-.89-1.1-.27-1.49h0Z" fill="#070e3f"></path>
  <path d="M63.44,72.21c.24,0,.56.09.66.33.08.26.06.65-.26.74-.24,0-.6.05-.71-.24-.09-.33,0-.63.29-.81l.02-.02h0Z" fill="#0b2641"></path>
  <path d="M64.98,73.25c1.05-.06,2.06.03,3.12.11,1.04.06,2.09.03,3.15.03l.2.12c-.86.2-1.73.17-2.61.09-.95-.09-1.9-.06-2.85-.11-.29,0-.6-.05-.87.05-.36.21-.71.57-1.12.69-.27.06-.56,0-.83,0-.53.44-.98.95-1.51,1.39l-.03-.26c.48-.44.98-.87,1.4-1.37.35.02.78.12,1.12-.05.36-.15.59-.42.86-.69h-.03Z" fill="#061144"></path>
  <path d="M76.61,73.36c-.05.65-.63,1.19-.98,1.7-.81.96-1.51,1.99-2.38,2.89-.39.42-.96.69-1.55.71-1.1.08-2.22.11-3.32,0-.96-.06-1.91.02-2.88-.08-.71.62-1.24,1.39-1.91,2.05-.51.51-1.01,1.08-1.57,1.54.03-.26-.06-.5.15-.69.47-.53.99-1.01,1.45-1.54.57-.56,1.08-1.31,1.78-1.72.42-.05.84-.02,1.27-.02l.15.26c.95.09,1.94.02,2.89-.02-.26-.08-.51-.14-.77-.21.87.03,1.75-.02,2.62.03.48.03.93-.15,1.3-.44.59-.56,1.05-1.27,1.57-1.88.62-.74,1.22-1.48,1.82-2.23.12-.12.26-.24.38-.36h-.02Z" fill="#e29a39"></path>
  <path d="M21.23,75.03c.21.06.36.06.47.27,1.25,1.94,1.52,3.99,1.96,6.22.21.99.09,2,.32,3,.3-.74.56-1.42,1.15-1.97.06,1.49-.38,2.86-.92,4.23-.24.54-.33,1.36-.8,1.76-.44.3-.96-.02-.98-.53-.09-1.51.05-3.01,0-4.52.05-1.54-.23-3-.45-4.52-.2-1.33-.59-2.61-.75-3.93l.02-.02h0Z" fill="#082239"></path>
  <path d="M42.04,76.96c.44.27.44.6.44,1.07-.2.18-.41.36-.6.53,0,.05.03.11.03.15h-.39s.11-.08.15-.12c-.2-.14-.39-.27-.59-.41-.02-.29-.02-.57,0-.87.27-.18.6-.6.95-.36l.02.02h0Z" fill="#0a233d"></path>
  <path d="M72.84,77.83c-.36.3-.81.48-1.3.44-.87-.05-1.75,0-2.62-.03-.75-.05-1.51-.03-2.26-.03-.42,0-.84-.03-1.27.02-.69.41-1.21,1.16-1.78,1.72-.08-.44.41-.72.65-1.04.35-.33.77-.87,1.28-.92,1.49-.11,2.85.06,4.34.03.6,0,1.21.03,1.81,0,.41-.03.72-.26,1.15-.23v.05h0Z" fill="#060e41"></path>
  <path d="M66.67,78.21c.75,0,1.51-.02,2.26.03.26.06.51.14.77.21-.96.03-1.94.12-2.89.02l-.15-.26h.02Z" fill="#d19038"></path>
  <path d="M57.34,78.68c-.21.21-.48.41-.63.66-.48,1.87-.14,3.92.9,5.53l-.2.08c-1.07-1.55-1.28-3.39-1.05-5.23.09-.53.36-1.05.98-1.05v.02Z" fill="#0b103d"></path>
  <path d="M41.11,80.59c.02,1.91-.45,3.87-.96,5.71-.17.51-.3,1.07-.57,1.54l-.3.08c.6-2.2,1.45-4.66,1.4-6.96,0-.27.23-.29.44-.33v-.03Z" fill="#e59231"></path>
  <path d="M21.22,90.41c.62,0,2.22.33,2.37.44-.63.54-1.73,1.13-2.38,1.67-.9.9-1.55,2.03-1.69,3.32-.39,0-.78,0-1.18.02-.35-.78-.24-1.73.06-2.52.32-.83.9-1.33,1.02-2.22-.57.17-1.05.44-1.51.83-.6.54-1.15,1.08-1.48,1.84-.3.62-.33,1.25-.39,1.93h-.71c-.32-1.08,0-2.15.51-3.12.48-.87,1.21-1.58,2.15-1.91,1.05-.38,2.09-.23,3.21-.26v-.02h0Z" fill="#0c2841"></path>
</svg><style>@media (prefers-color-scheme: light) { :root { filter: none; } }
@media (prefers-color-scheme: dark) { :root { filter: none; } }
</style></svg>